<?xml version="1.0" encoding="UTF-8" standalone="no"?>
<svg
   xmlns:dc="http://purl.org/dc/elements/1.1/"
   xmlns:cc="http://creativecommons.org/ns#"
   xmlns:rdf="http://www.w3.org/1999/02/22-rdf-syntax-ns#"
   xmlns:svg="http://www.w3.org/2000/svg"
   xmlns="http://www.w3.org/2000/svg"
   xmlns:sodipodi="http://sodipodi.sourceforge.net/DTD/sodipodi-0.dtd"
   xmlns:inkscape="http://www.inkscape.org/namespaces/inkscape"
   aria-hidden="true"
   focusable="false"
   data-prefix="fas"
   data-icon="info"
   class="svg-inline--fa fa-info fa-w-6"
   role="img"
   viewBox="0 0 512 512"
   version="1.1"
   id="svg4"
   sodipodi:docname="info.svg"
   width="512"
   height="512"
   inkscape:version="1.0.1 (3bc2e813f5, 2020-09-07)">
  <metadata
     id="metadata10">
    <rdf:RDF>
      <cc:Work
         rdf:about="">
        <dc:format>image/svg+xml</dc:format>
        <dc:type
           rdf:resource="http://purl.org/dc/dcmitype/StillImage" />
        <dc:title></dc:title>
      </cc:Work>
    </rdf:RDF>
  </metadata>
  <defs
     id="defs8" />
  <sodipodi:namedview
     pagecolor="#ffffff"
     bordercolor="#666666"
     borderopacity="1"
     objecttolerance="10"
     gridtolerance="10"
     guidetolerance="10"
     inkscape:pageopacity="0"
     inkscape:pageshadow="2"
     inkscape:window-width="1920"
     inkscape:window-height="992"
     id="namedview6"
     showgrid="false"
     inkscape:zoom="0.6541886"
     inkscape:cx="-180.03158"
     inkscape:cy="513.93964"
     inkscape:window-x="0"
     inkscape:window-y="27"
     inkscape:window-maximized="1"
     inkscape:current-layer="svg4" />
  <path
     fill="currentColor"
     d="m 180,424.229 h 20 V 279.771 h -20 c -11.046,0 -20,-8.954 -20,-20 V 212 c 0,-11.046 8.954,-20 20,-20 h 112 c 11.046,0 20,8.954 20,20 v 212.229 h 20 c 11.046,0 20,8.954 20,20 V 492 c 0,11.046 -8.954,20 -20,20 H 180 c -11.046,0 -20,-8.954 -20,-20 v -47.771 c 0,-11.046 8.954,-20 20,-20 z M 256,0 c -39.765,0 -72,32.235 -72,72 0,39.765 32.235,72 72,72 39.765,0 72,-32.235 72,-72 C 328,32.235 295.764,0 256,0 Z"
     id="path2" />
</svg>
