<?xml version="1.0" encoding="UTF-8" standalone="no"?>
<svg
   xmlns:dc="http://purl.org/dc/elements/1.1/"
   xmlns:cc="http://creativecommons.org/ns#"
   xmlns:rdf="http://www.w3.org/1999/02/22-rdf-syntax-ns#"
   xmlns:svg="http://www.w3.org/2000/svg"
   xmlns="http://www.w3.org/2000/svg"
   xmlns:sodipodi="http://sodipodi.sourceforge.net/DTD/sodipodi-0.dtd"
   xmlns:inkscape="http://www.inkscape.org/namespaces/inkscape"
   width="109.55867mm"
   height="760.08551mm"
   viewBox="0 0 109.55867 760.0855"
   version="1.1"
   id="svg1488"
   inkscape:version="1.0.1 (3bc2e813f5, 2020-09-07)"
   sodipodi:docname="ubahn.svg">
  <defs
     id="defs1482" />
  <sodipodi:namedview
     id="base"
     pagecolor="#ffffff"
     bordercolor="#666666"
     borderopacity="1.0"
     inkscape:pageopacity="0.0"
     inkscape:pageshadow="2"
     inkscape:zoom="1.4"
     inkscape:cx="159.93545"
     inkscape:cy="92.522676"
     inkscape:document-units="mm"
     inkscape:current-layer="layer1"
     inkscape:document-rotation="0"
     showgrid="false"
     fit-margin-bottom="750"
     fit-margin-top="0"
     fit-margin-left="0"
     fit-margin-right="0"
     inkscape:window-width="1920"
     inkscape:window-height="992"
     inkscape:window-x="0"
     inkscape:window-y="27"
     inkscape:window-maximized="1" />
  <metadata
     id="metadata1485">
    <rdf:RDF>
      <cc:Work
         rdf:about="">
        <dc:format>image/svg+xml</dc:format>
        <dc:type
           rdf:resource="http://purl.org/dc/dcmitype/StillImage" />
        <dc:title></dc:title>
      </cc:Work>
    </rdf:RDF>
  </metadata>
  <g
     inkscape:label="reference"
     inkscape:groupmode="layer"
     id="layer1"
     transform="translate(-53.088971,-198.04314)">
    <path
       id="rect2384-6"
       style="fill:#f0d722;fill-opacity:1;stroke:#f0d722;stroke-width:0;stroke-opacity:1"
       d="m 118.17278,199.79079 v 3.74093 h 5.49582 v -3.74093 z m -8.70158,0 v 3.74093 h 5.49581 v -3.74093 z m -8.70159,0 v 3.74093 h 5.49581 v -3.74093 z m -8.701594,0 v 3.74093 h 5.495814 v -3.74093 z m -1.910004,-1.60005 c 0.06018,-0.0688 0.231011,-0.1476 0.231011,-0.1476 h 35.021087 c 0,0 0.2638,0.046 0.35489,0.13368 0.11468,0.11035 0.18536,0.43999 0.18536,0.43999 v 8.78365 H 90.055244 v -8.98887 c 0,0 0.0493,-0.15975 0.102768,-0.22085 z"
       sodipodi:nodetypes="ccccccccccccccccccccaccacccca" />
    <path
       id="rect2384-6-1"
       style="fill:#f0d722;fill-opacity:1;stroke:#f0d722;stroke-width:0;stroke-opacity:1"
       d="m 81.228987,199.94021 0.07722,3.74013 5.494648,-0.11344 -0.07722,-3.74013 z m -8.699725,0.17961 0.07722,3.74014 5.494638,-0.11344 -0.07722,-3.74013 z m -8.699737,0.17962 0.07722,3.74013 5.494639,-0.11344 -0.07722,-3.74013 z m -8.699741,0.17962 0.07722,3.74013 5.494644,-0.11344 -0.07722,-3.74013 z m -1.942624,-1.56029 c 0.05875,-0.0701 0.227915,-0.15234 0.227915,-0.15234 L 88.4287,198.04355 c 0,0 0.264694,0.0405 0.357575,0.12632 0.116933,0.10796 0.194402,0.43607 0.194402,0.43607 l 0.181308,8.78178 -35.887468,0.74094 -0.185545,-8.98696 c 0,0 0.04599,-0.16073 0.09819,-0.22293 z"
       sodipodi:nodetypes="ccccccccccccccccccccaccacccca" />
    <path
       id="rect2384-6-1-0"
       style="fill:#f0d722;fill-opacity:1;stroke:#f0d722;stroke-width:0;stroke-opacity:1"
       d="m 134.50762,199.94021 -0.0772,3.74013 -5.49465,-0.11344 0.0772,-3.74013 z m 8.69973,0.17961 -0.0772,3.74014 -5.49464,-0.11344 0.0772,-3.74013 z m 8.69973,0.17962 -0.0772,3.74013 -5.49464,-0.11344 0.0772,-3.74013 z m 8.69975,0.17962 -0.0772,3.74013 -5.49465,-0.11344 0.0772,-3.74013 z m 1.94262,-1.56029 c -0.0588,-0.0701 -0.22791,-0.15234 -0.22791,-0.15234 l -35.01363,-0.72288 c 0,0 -0.2647,0.0405 -0.35758,0.12632 -0.11693,0.10796 -0.1944,0.43607 -0.1944,0.43607 l -0.18131,8.78178 35.88747,0.74094 0.18555,-8.98696 c 0,0 -0.046,-0.16073 -0.0982,-0.22293 z"
       sodipodi:nodetypes="ccccccccccccccccccccaccacccca" />
  </g>
  <g
     inkscape:groupmode="layer"
     id="layer4"
     inkscape:label="cars"
     transform="translate(-53.088971,-198.04314)" />
</svg>
